<svg xmlns="http://www.w3.org/2000/svg" viewBox="0 0 225.11 137.87"><defs><style>.cls-1{fill:#62cad0;}</style></defs><g id="Layer_2" data-name="Layer 2"><g id="Layer_1-2" data-name="Layer 1"><path class="cls-1" d="M224.43,61.76a2,2,0,0,0-2.62.15c-.7.54-1.35,1.12-1.95,1.66l-4.56,4.12c-3.22,2.92-6.55,6-9.89,8.84a29.13,29.13,0,0,1-13.35,6.37c-1.71.36-3.06.11-3.82-.69s-1-2.22-.5-3.94a15.72,15.72,0,0,1,1-2.64c1.31-2.85,2.71-5.75,3.94-8.31a2.67,2.67,0,0,0-.6-3.68,2.76,2.76,0,0,0-4,.62l-.36.45-.27.33a105.59,105.59,0,0,1-12.92,12.89A44,44,0,0,1,165.45,84a2.63,2.63,0,0,1-3.28-.33c-.78-.72-.66-1.47-.23-2.89a66.82,66.82,0,0,1,6-13.14c.75-1.31,1.37-2.48,1.89-3.58a2.33,2.33,0,0,0-.46-2.76,2.23,2.23,0,0,0-2.35-.45,119.64,119.64,0,0,0-24.58,10,14.18,14.18,0,0,1-3,1.39A13.7,13.7,0,0,1,139,69c-.51-7.14-4.73-11.2-11.3-10.92a12.69,12.69,0,0,0-6.86,2.24,35.36,35.36,0,0,1-6.82,3.5l-1,.42c-4,1.7-8.26,3.56-12.55,5.58a171.32,171.32,0,0,0-21,12.22l-.19.13c-.67.45-.83.49-1,.39l0,0A3.66,3.66,0,0,1,78.5,82l.2-.44,5.22-12.51,1.78-4.26c.06-.14.13-.28.2-.42a2.38,2.38,0,0,0-.27-3.21c-1.51-1.3-2.83-.2-3.47.32l-.34.28A139.39,139.39,0,0,0,71.1,71.06c-1.86,1.73-3.79,3.52-5.74,5.22-3,2.57-6.61,5.35-11.27,6.4a2.35,2.35,0,0,1-1.87-.35,2.1,2.1,0,0,1-.89-1.46,7.39,7.39,0,0,1,.3-3.47,111,111,0,0,1,5.51-12.89l.1-.2a2.23,2.23,0,0,0-.32-3,2.57,2.57,0,0,0-3.48,0,65.66,65.66,0,0,1-12.38,6.52c-1.47.65-3,1.3-4.4,2C34.31,70.9,31.8,72,29.19,73a1.79,1.79,0,0,1-1.44.12,1.72,1.72,0,0,1-.52-1.28c-.12-1.16-.28-2.35-.49-3.52-.55-3.09-2-5.3-4.11-6.41s-4.77-1-7.61.37A24.78,24.78,0,0,0,8.4,67.42l-.78.78a6.52,6.52,0,0,0-.5.54L6.89,69c0-3.32,1.15-5.46,3.61-6.84a212.51,212.51,0,0,0,35.25-25c8.71-7.55,13.73-15.11,15.78-23.77,1.1-4.62.24-8.18-2.62-10.88C55.35-.81,51.06-.15,48.14.64c-5,1.36-9.59,4.31-13.88,9a137.47,137.47,0,0,0-34.15,69c-.13.71-.52,2.85,1.67,3.61s3.16-1.29,3.47-2a46.12,46.12,0,0,1,4.9-8.13,16.7,16.7,0,0,1,7.26-5.8,3.91,3.91,0,0,1,3.26-.2,3.9,3.9,0,0,1,1.68,2.79c1.14,5.16,0,7.1-5.13,8.65A30.71,30.71,0,0,0,7,82.37c-2.37,1.84-2.28,3.88-1.79,5.27C6.07,90,8.16,90.41,9.66,90.5c6.07.37,10.82-2.26,14.08-7.81,1.6-2.73,3.26-4.28,5.38-5A187.85,187.85,0,0,0,50,68.5c-.3.77-.62,1.53-.92,2.27a63.56,63.56,0,0,0-2.39,6.46c-.92,3.18-.36,5.84,1.66,7.92s4.46,2.48,7.72,1.51a29.76,29.76,0,0,0,12.72-7.55l.68-.68c2.89-2.9,5.87-5.9,8.84-8.8l.22-.22-2.23,5.3-4.09,9.78a18.59,18.59,0,0,1-6,7.74C57.44,99,49.62,106.64,40.58,116A31,31,0,0,0,34,126.67a7.41,7.41,0,0,0,5.33,10.57,15.09,15.09,0,0,0,4.21.63,12.7,12.7,0,0,0,8.77-3.58,28.17,28.17,0,0,0,5.19-6.38,127.37,127.37,0,0,0,11.61-24.15A37.24,37.24,0,0,1,82.15,85.51a135.88,135.88,0,0,1,30.94-16.87c-.22.45-.44.91-.64,1.37-1.29,3-2.67,7-1.89,11.45A9.61,9.61,0,0,0,123,89.4c3.87-1.06,7.23-3.45,10.29-7.3l.31-.39c1.32-1.67,2.57-3.25,4.36-4.1l4.74-2.32a165,165,0,0,1,19.46-8.54l.47-.18.21-.08c-.33.59-.64,1.16-.94,1.74-2.32,4.36-4.43,8.69-4.86,13.65A6.46,6.46,0,0,0,159,87.49a6.71,6.71,0,0,0,6.09,1.13A14.68,14.68,0,0,0,169,87a63.29,63.29,0,0,0,12.51-9.4,8.11,8.11,0,0,0,.76-.89,3.35,3.35,0,0,1,.8-.83,7.15,7.15,0,0,1-.2,1,7.41,7.41,0,0,0-.26,1.31c-.43,5.71,2,8.64,7.67,9.22a12.39,12.39,0,0,0,5.83-.79c11.34-4.34,19.65-12.81,27.68-21l.37-.38a2.92,2.92,0,0,0,.48-.66l0-.09A2,2,0,0,0,224.43,61.76ZM11.58,55.87A141.91,141.91,0,0,1,19.5,38.3,126.36,126.36,0,0,1,38.11,12.21c4-4.26,8.61-6.84,13.47-7.46,2.33,0,4,.59,5,1.71a5.6,5.6,0,0,1,1,4.57C56.46,19.69,51.28,26,45.84,31.43,35.37,42,22.84,50.13,12,56.7l-.17.11c-.13.08-.34.21-.47.27C11.22,56.92,11.29,56.63,11.58,55.87Zm7.54,25.71a2.66,2.66,0,0,1-.38.44c-.12.12-.23.23-.33.35C16.18,85,14,86.16,11.28,86.07a5.78,5.78,0,0,0-.82,0,2,2,0,0,1-.68,0,.34.34,0,0,1-.06-.14c0-.16,0-.29.79-.77l.28-.18a23.58,23.58,0,0,1,7.44-3.21A2.67,2.67,0,0,1,19.12,81.58ZM134.64,68.76v.09a16.38,16.38,0,0,1-.39,2.21c-.6,2.22-1.51,3.08-3.22,3-1.87-.08-3.61-1.33-3.88-2.77-.48-2.53.27-4.24,2.2-5.09l.3-.13a8,8,0,0,0,1.65-.87,8.67,8.67,0,0,0,.66-.57c.51-.47.73-.63.94-.63a.77.77,0,0,1,.33.1,2.79,2.79,0,0,1,1.42,2.64q0,.39,0,.78v1.26Zm-10.7-4.1c-.09.17-.18.34-.25.5-2.84,6.64-1.64,10,4.74,13.13a5.51,5.51,0,0,1,1.25.76h0c0,.06-.09.33-.82,1.16a13.21,13.21,0,0,1-5.68,4.25c-2.33.75-4.31.6-5.72-.44-1.59-1.16-2.43-3.41-2.43-6.49a18.11,18.11,0,0,1,8.27-12.76l.21-.14a2.64,2.64,0,0,1,.6-.31C124.07,64.43,124,64.57,123.94,64.66ZM38,128c1.5-4.06,4.28-7.13,7.23-10.38l1.21-1.34c7.06-7.9,13.14-13.41,19.47-17.63-2.8,8.62-7,16.61-11,24.08l-.43.79a24.86,24.86,0,0,1-4.32,6.39,13.72,13.72,0,0,1-7.51,3.87,4.31,4.31,0,0,1-4.15-1.31A4.47,4.47,0,0,1,38,128Z"/><path class="cls-1" d="M64.93,43.48a2.17,2.17,0,0,0-.82-.31,5,5,0,0,0-4.06,1.27,5.64,5.64,0,0,0-2.25,4.13c-.24,1.6.72,2.87,2.57,3.4a2.37,2.37,0,0,0,.7.1c2,0,4.37-2.33,5.12-4.63A3.22,3.22,0,0,0,64.93,43.48Z"/><path class="cls-1" d="M94.13,41.74a2.32,2.32,0,0,0-1.51-2.43,2,2,0,0,0-2.47,1c-.55,1-1.07,1.94-1.6,2.92l-.76,1.43a2.13,2.13,0,0,0,.54,3,2.48,2.48,0,0,0,1.41.47,2.51,2.51,0,0,0,1.91-1,11.36,11.36,0,0,0,1.85-3.63c.17-.48.34-1,.54-1.41l.09-.19Z"/></g></g></svg>